<svg width="1024" height="1024" viewBox="0 0 1024 1024" fill="none" xmlns="http://www.w3.org/2000/svg">
  <defs>
    <linearGradient id="bg" x1="120" y1="120" x2="904" y2="904" gradientUnits="userSpaceOnUse">
      <stop stop-color="#1A2440"/>
      <stop offset="1" stop-color="#07132A"/>
    </linearGradient>
    <radialGradient id="bgGlow" cx="0" cy="0" r="1" gradientUnits="userSpaceOnUse" gradientTransform="translate(512 420) rotate(90) scale(450)">
      <stop stop-color="#2A3D68" stop-opacity="0.72"/>
      <stop offset="1" stop-color="#2A3D68" stop-opacity="0"/>
    </radialGradient>
    <radialGradient id="tomato" cx="0" cy="0" r="1" gradientUnits="userSpaceOnUse" gradientTransform="translate(418 388) rotate(48) scale(620)">
      <stop stop-color="#FFA591"/>
      <stop offset="0.56" stop-color="#FF5448"/>
      <stop offset="1" stop-color="#C81322"/>
    </radialGradient>
    <linearGradient id="leaf" x1="366" y1="224" x2="656" y2="358" gradientUnits="userSpaceOnUse">
      <stop stop-color="#B4FF7A"/>
      <stop offset="1" stop-color="#2F9E45"/>
    </linearGradient>
    <filter id="shadow" x="144" y="178" width="736" height="760" filterUnits="userSpaceOnUse" color-interpolation-filters="sRGB">
      <feFlood flood-opacity="0" result="BackgroundImageFix"/>
      <feColorMatrix in="SourceAlpha" type="matrix" values="0 0 0 0 0 0 0 0 0 0 0 0 0 0 0 0 0 0 127 0" result="hardAlpha"/>
      <feOffset dy="20"/>
      <feGaussianBlur stdDeviation="24"/>
      <feComposite in2="hardAlpha" operator="out"/>
      <feColorMatrix type="matrix" values="0 0 0 0 0.0117647 0 0 0 0 0.0431373 0 0 0 0 0.109804 0 0 0 0.42 0"/>
      <feBlend mode="normal" in2="BackgroundImageFix" result="effect1_dropShadow_0_1"/>
      <feBlend mode="normal" in="SourceGraphic" in2="effect1_dropShadow_0_1" result="shape"/>
    </filter>
  </defs>

  <rect x="64" y="64" width="896" height="896" rx="230" fill="url(#bg)"/>
  <rect x="64" y="64" width="896" height="896" rx="230" fill="url(#bgGlow)"/>

  <g filter="url(#shadow)">
    <path d="M512 232C686 232 822 370 822 544C822 732 686 870 512 870C338 870 202 732 202 544C202 370 338 232 512 232Z" fill="url(#tomato)"/>
    <ellipse cx="410" cy="398" rx="130" ry="102" fill="#FFE3DC" fill-opacity="0.28"/>

    <path d="M512 206C546 180 584 168 623 175C655 181 682 198 704 224C663 228 623 240 586 259C554 275 526 297 503 324C496 284 499 242 512 206Z" fill="url(#leaf)"/>
    <path d="M512 206C478 180 440 168 401 175C369 181 342 198 320 224C361 228 401 240 438 259C470 275 498 297 521 324C528 284 525 242 512 206Z" fill="url(#leaf)"/>

    <circle cx="512" cy="558" r="230" fill="none" stroke="#FFF2EE" stroke-width="44" stroke-opacity="0.96"/>
    <line x1="512" y1="558" x2="512" y2="420" stroke="#FFF8F6" stroke-width="44" stroke-linecap="round"/>
    <line x1="512" y1="558" x2="634" y2="638" stroke="#FFF8F6" stroke-width="44" stroke-linecap="round"/>
    <circle cx="512" cy="558" r="27" fill="#FFF8F6"/>
  </g>
</svg>
